<svg width="300" height="260" viewBox="0 0 300 260" fill="none" xmlns="http://www.w3.org/2000/svg">
<path d="M53.1 1.7C53.8 2.7 56.2 5.4 58.4 7.7L62.4 12H80.2H98V30.5V49L84.8 49.1H71.5L67.3 54.3L63.1 59.5L83.3 60C100.3 60.4 103 60.7 100.7 61.7C98.5 62.7 98 63.6 98 66.5V70H76.1H54.3L50.2 75.2L46.1 80.5L74.8 81C100.3 81.4 103.2 81.7 100.8 82.9C98.5 84.1 98 85 98 88.2V92H67.3H36.5L32.3 97.3L28 102.5L65.7 103C96.9 103.4 102.9 103.7 100.7 104.7L97.9 106L98.2 115.6L98.5 125.3L109.8 125.2C119.8 125.1 121 125.3 121 126.8C121 127.7 118.9 130.1 116.3 132C110.6 136.3 107.7 141.6 107.2 148.9C106.2 163.6 121 175.8 135.1 172C154.5 166.7 158.8 141.3 142 131C139.8 129.6 138.1 127.8 138.3 127C138.5 125.7 142.3 125.5 165.5 125.5C189.6 125.5 192.5 125.7 192.8 127.1C193 128.1 191.7 129.6 189.6 130.8C178.8 137.2 175.7 153.2 183.4 163.2C191.6 174 206.1 175.8 216.1 167.2C221.5 162.5 224 157.1 224 149.5C224 141.9 220.2 134.7 214.1 131C208.4 127.5 209.1 125.6 216.3 125C221.6 124.5 222.4 124.1 227.2 119.2L232.5 114H171.2H110V108.5V103H166H222V93.7C222 84.5 222 84.3 219.3 82.9C216.7 81.6 217.2 81.5 226.7 81.2L236.9 80.9L240.9 76.1C243.2 73.4 245 70.9 245 70.6C245 70.3 239.8 70 233.5 70H222V66.6C222 64.3 221.3 62.8 219.8 61.7C217.7 60.2 218.9 60.1 236 60L254.5 59.9L258.8 54.4L263.1 49H242.5H222V45.4C222 42.7 221.5 41.7 220 41.3C213.8 39.7 220.9 39 244.8 39H271.5L275.8 33.5L280.1 28H195.1H110.1L109.8 14.2L109.5 0.500004L80.6 0.200004C53.1 3.53006e-06 51.8 0.100004 53.1 1.7ZM210.5 44V48.5L160.3 48.8L110 49V44V39L160.3 39.2L210.5 39.5V44ZM210.5 65V69.5L160.3 69.8L110 70V65V60L160.3 60.2L210.5 60.5V65ZM210.5 86.5V91.5H160.5H110.5L110.2 86.2L109.9 81L160.2 81.2L210.5 81.5V86.5ZM138 140.5C144.1 146.4 144.2 153.6 138.2 159.3C128 169.1 112 156.5 118.5 143.9C122.3 136.7 132.2 135 138 140.5ZM210.1 140.6C216 146.3 216 153.7 210.1 159.4C200 169.1 184.1 156.5 190.5 143.9C194.3 136.7 204.2 135 210.1 140.6Z" fill="#DBDBDB"/>
<path d="M13.5 219.4C5.6 222.3 0 230.9 0 240.1C0 245.4 4.6 253.7 9.2 256.8C14.8 260.4 23 261 29.5 258.1C35.2 255.6 35 255.6 35 257.6C35 260 37.3 258.7 38.1 255.9C38.5 254.6 38.8 249.8 38.9 245.2L39 237H29.5H20V240.5V244H24.9C27.7 244 30.1 244.4 30.4 244.9C31.5 246.7 26 251.9 22.3 252.6C15 254 9 248 9 239.5C9 230.9 13.5 226 21.3 226C24.7 226 26.3 226.6 28.2 228.5L30.6 230.9L33.9 228.9C37 227 37.1 226.8 35.7 224.7C32.1 219.2 21.2 216.6 13.5 219.4Z" fill="#DBDBDB"/>
<path d="M231.7 219.5C215.1 225.3 214.1 249.9 230.1 258C235.2 260.7 242.9 260.6 248.1 257.9C252 255.9 252.2 255.9 253.5 257.7C254.2 258.7 255.2 259.2 255.6 258.8C256.6 257.7 258.4 240.6 257.7 238.6C257.2 237.3 255.4 237 247.5 237C238.8 237 238 237.2 238 238.9C238 243.1 239 244 244.1 244C249.8 244 250.5 245.6 246.6 249.5C243.5 252.6 238 253.6 234.4 251.8C229.6 249.5 227.5 245.6 227.5 238.8C227.5 233.2 227.7 232.6 231.2 229.4C236 225.1 242.3 224.6 246.6 228.4C249.2 230.6 249.5 230.6 252.2 229.1C255.8 227.1 255.7 225.8 252 222.6C246.6 218.1 238.8 216.9 231.7 219.5Z" fill="#DBDBDB"/>
<path d="M44.3 219.7C43.3 220 43 225.1 43 240.1V260H47H51V252.5C51 245.2 51.1 245 53.4 245C55.9 245 59.3 248.7 63.9 256.2C66 259.7 66.5 260 70.6 260C74.9 260 75 259.9 73.9 257.7C73.3 256.5 70.8 252.7 68.5 249.4L64.2 243.2L67.2 241C75.8 234.6 73 222.4 62.3 219.9C58.3 219 46.4 218.8 44.3 219.7ZM61.4 228C63.2 228.7 64 229.7 64 231.4C64 234.8 60.5 237 55.3 237H51V232V227H54.9C57.1 227 60 227.4 61.4 228Z" fill="#DBDBDB"/>
<path d="M93.3 220.2C92.1 222.1 77 258.2 77 259.2C77 259.6 78.8 260 81.1 260C84.9 260 85.3 259.8 86.7 256L88.3 252H96.7H105L106.6 256C108.1 259.8 108.4 260 112.6 260C116.7 260 116.9 259.9 116.1 257.7C112.2 247.8 100.7 221.3 99.8 220.3C98.5 218.6 94.4 218.6 93.3 220.2ZM99 237.6C101.9 244.4 101.7 245 96.5 245C94 245 92 244.6 92 244.1C92 242.9 96.2 233 96.7 233C96.9 233 98 235.1 99 237.6Z" fill="#DBDBDB"/>
<path d="M121.7 219.7C121.3 220 121 229.3 121 240.2V260H131.3C142.3 260 146.6 258.5 149 253.9C150.8 250.6 150.4 245.1 148.2 242C146.4 239.6 146.3 239 147.5 237.4C148.3 236.3 149 233.6 149 231.3C149 225.8 145.2 221.3 139.5 220C134.9 218.9 122.6 218.7 121.7 219.7ZM138.8 227.6C141.2 229.3 141.7 232.9 139.8 234.8C139.1 235.5 136.4 236 133.8 236H129V231.7C129 229.3 129.3 227 129.7 226.7C130.9 225.4 136.5 226 138.8 227.6ZM140.6 245.1C142.3 246.5 142.4 250.2 140.8 251.8C140.1 252.5 137.2 253 134.3 253H129V248.7C129 246.3 129.3 244 129.8 243.6C130.8 242.5 139 243.7 140.6 245.1Z" fill="#DBDBDB"/>
<path d="M187.7 219.6C187.3 220 187 225.3 187 231.4V242.5L176.7 231.7C171.1 225.8 165.9 221 165.3 221C164.6 221 163.7 221 163.4 221C162.9 221 162.8 226.2 163 252.5V260H167H171V248.7L171.1 237.5L180.8 247.7C191 258.4 194.6 261.1 195.5 258.8C195.8 258 195.9 248.9 195.8 238.5L195.5 219.5L192 219.2C190 219 188.1 219.2 187.7 219.6Z" fill="#DBDBDB"/>
<path d="M200.9 219.7C200.7 221.7 201.2 229.7 201.6 231.2C201.9 232.3 203.1 233 204.6 233C206.9 233 207 232.7 207 226V219H204C202.4 219 201 219.3 200.9 219.7Z" fill="#DBDBDB"/>
<path d="M276.2 220C270.4 221.3 265 225.7 262.4 231.3C259.3 238 259.4 242.3 262.6 248.9C266.4 256.5 271.3 259.5 280 259.5C285.7 259.5 287.3 259.1 290.7 256.7C297.6 251.9 301.1 243 299.1 235.3C296.2 224.6 286 217.8 276.2 220ZM284.5 229.4C292.3 232.7 293.2 244.1 286 249.7C283.7 251.6 275.9 251.3 273.4 249.2C266.8 243.9 267.9 232.7 275.3 229.5C279.4 227.7 280.3 227.7 284.5 229.4Z" fill="#DBDBDB"/>
</svg>
